<svg id="Capa_1" enable-background="new 0 0 475.293 475.293" height="512" viewBox="0 0 475.293 475.293" width="512" xmlns="http://www.w3.org/2000/svg"><path d="m326.764 0c-81.894 0-148.529 66.635-148.529 148.529s66.635 148.529 148.529 148.529 148.529-66.635 148.529-148.529-66.635-148.529-148.529-148.529zm0 267.352c-65.518 0-118.823-53.305-118.823-118.823s53.305-118.823 118.823-118.823 118.823 53.305 118.823 118.823-53.305 118.823-118.823 118.823z"/><path d="m103.97 237.647c-57.323 0-103.97 46.647-103.97 103.97s46.647 103.97 103.97 103.97 103.97-46.647 103.97-103.97-46.647-103.97-103.97-103.97zm0 178.235c-40.947 0-74.265-33.317-74.265-74.265s33.317-74.265 74.265-74.265 74.265 33.317 74.265 74.265-33.317 74.265-74.265 74.265z"/><path d="m326.764 356.47c-32.766 0-59.412 26.645-59.412 59.412 0 32.766 26.645 59.412 59.412 59.412 32.766 0 59.412-26.645 59.412-59.412s-26.646-59.412-59.412-59.412zm0 89.117c-16.376 0-29.706-13.33-29.706-29.706s13.33-29.706 29.706-29.706 29.706 13.33 29.706 29.706c0 16.377-13.33 29.706-29.706 29.706z"/></svg>