<svg height="512pt" viewBox="0 0 512 512" width="512pt" xmlns="http://www.w3.org/2000/svg"><path d="m436 90c24.8125 0 45-20.1875 45-45s-20.1875-45-45-45-45 20.1875-45 45c0 6.9375 1.582031 13.515625 4.398438 19.390625l-60.007813 60.007813c-5.875-2.816407-12.453125-4.398438-19.390625-4.398438-12.109375 0-23.109375 4.816406-31.207031 12.625l-44.148438-22.074219c.226563-1.820312.355469-3.667969.355469-5.550781 0-24.8125-20.1875-45-45-45s-45 20.1875-45 45c0 6.9375 1.582031 13.515625 4.398438 19.390625l-60.007813 60.007813c-5.875-2.816407-12.453125-4.398438-19.390625-4.398438-24.8125 0-45 20.1875-45 45s20.1875 45 45 45 45-20.1875 45-45c0-6.9375-1.582031-13.515625-4.398438-19.390625l60.007813-60.007813c5.875 2.816407 12.453125 4.398438 19.390625 4.398438 12.109375 0 23.109375-4.816406 31.207031-12.625l44.148438 22.074219c-.226563 1.820312-.355469 3.667969-.355469 5.550781 0 24.8125 20.1875 45 45 45s45-20.1875 45-45c0-6.9375-1.582031-13.515625-4.398438-19.390625l60.007813-60.007813c5.875 2.816407 12.453125 4.398438 19.390625 4.398438zm0-60c8.269531 0 15 6.730469 15 15s-6.730469 15-15 15-15-6.730469-15-15 6.730469-15 15-15zm-360 210c-8.269531 0-15-6.730469-15-15s6.730469-15 15-15 15 6.730469 15 15-6.730469 15-15 15zm120-120c-8.269531 0-15-6.730469-15-15s6.730469-15 15-15 15 6.730469 15 15-6.730469 15-15 15zm120 60c-8.269531 0-15-6.730469-15-15s6.730469-15 15-15 15 6.730469 15 15-6.730469 15-15 15zm0 0"/><path d="m15 512h482c8.285156 0 15-6.714844 15-15s-6.714844-15-15-15h-16v-317c0-8.285156-6.714844-15-15-15h-60c-8.285156 0-15 6.714844-15 15v317h-30v-197c0-8.285156-6.714844-15-15-15h-60c-8.285156 0-15 6.714844-15 15v197h-30v-257c0-8.285156-6.714844-15-15-15h-60c-8.285156 0-15 6.714844-15 15v257h-30v-137c0-8.285156-6.714844-15-15-15h-60c-8.285156 0-15 6.714844-15 15v137h-16c-8.285156 0-15 6.714844-15 15s6.714844 15 15 15zm406-332h30v302h-30zm-120 120h30v182h-30zm-120-60h30v242h-30zm-120 120h30v122h-30zm0 0"/></svg>