<?xml version="1.0" encoding="iso-8859-1"?>
<!-- Generator: Adobe Illustrator 19.0.0, SVG Export Plug-In . SVG Version: 6.00 Build 0)  -->
<svg version="1.1" id="Capa_1" xmlns="http://www.w3.org/2000/svg" xmlns:xlink="http://www.w3.org/1999/xlink" x="0px" y="0px"
	 viewBox="0 0 374.086 374.086" style="enable-background:new 0 0 374.086 374.086;" xml:space="preserve">
<g>
	<g>
		<path d="M334.044,192.042c-0.048,0-0.095,0.001-0.143,0.002H182.037V39.67c-0.022-5.532-4.514-10.003-10.046-10
			c-45.68-0.152-89.521,17.981-121.747,50.355C17.851,112.986,0,156.171,0,201.625c0,94.817,77.134,171.957,171.95,171.957
			c45.672,0.152,89.505-17.982,121.721-50.355c32.393-32.962,50.232-75.939,50.232-121.393
			C343.885,196.407,339.47,192.023,334.044,192.042z M279.465,309.355c-28.478,28.549-67.197,44.513-107.521,44.332
			c-83.789,0-151.956-68.219-151.956-152.008c0-40.179,15.849-78.412,44.482-107.547c26.024-26.159,60.738-41.865,97.567-44.142
			v151.636c0,5.523,4.385,10.417,9.907,10.417h151.63C320.986,248.713,305.336,283.239,279.465,309.355z"/>
	</g>
</g>
<g>
	<g>
		<path d="M323.853,50.751c-0.04-0.038-0.081,0.025-0.122-0.016h0C290.769,18.343,247.537,0.503,202.083,0.503
			c-5.532-0.003-10.024,4.468-10.046,10V172.46c0,5.522,4.57,9.583,10.093,9.583h161.956c5.425,0.097,9.902-4.223,9.998-9.648
			c0.001-0.048,0.001-0.096,0.002-0.144C374.086,126.796,356.246,83.715,323.853,50.751z M212.037,162.043V20.831
			c37,2.393,70.81,17.633,97.566,43.9c26.267,26.755,41.762,61.312,44.156,97.312H212.037z"/>
	</g>
</g>
<g>
</g>
<g>
</g>
<g>
</g>
<g>
</g>
<g>
</g>
<g>
</g>
<g>
</g>
<g>
</g>
<g>
</g>
<g>
</g>
<g>
</g>
<g>
</g>
<g>
</g>
<g>
</g>
<g>
</g>
</svg>
